PathFileType	4	(X/Y/Z) flx_0kg_3.trc																										
DataRate	CameraRate	NumFrames	NumMarkers	Units	OrigDataRate	OrigDataStartFrame	OrigNumFrames																					
100	100	44	9	mm	100	627	835																					
Frame#	Time	gu			centelbow			EpL			centpxt8			centijc7			ij			ts			aa			ai		
		X1	Y1	Z1	X2	Y2	Z2	X3	Y3	Z3	X4	Y4	Z4	X5	Y5	Z5	X6	Y6	Z6	X7	Y7	Z7	X8	Y8	Z8	X9	Y9	Z9  
626	6.26	-81.095	-9.279	161.846	-42.978	-242.362	233.981	-22.526	-228.398	254.624	-46.816	-153.158	-8.669	-46.816	31.938	-8.669	0	0	0	-143.39	21.199	52.802	-108.979	21.102	166.998	-152.763	-91.633	60.974
627	6.27	-81.106	-10.488	162.138	-46.319	-244.359	233.399	-25.749	-230.756	254.166	-46.816	-153.158	-8.669	-46.816	31.938	-8.669	0	0	0	-143.35	21.447	52.607	-109.009	21.195	166.824	-152.829	-91.385	60.651
628	6.28	-81.357	-10.826	162.319	-49.556	-245.373	232.753	-28.906	-232.094	253.65	-46.816	-153.158	-8.669	-46.816	31.938	-8.669	0	0	0	-143.415	21.793	52.245	-109.15	21.412	166.484	-152.962	-91.042	60.174
629	6.29	-81.713	-10.334	162.222	-52.499	-245.431	231.939	-31.79	-232.431	252.953	-46.816	-153.158	-8.669	-46.816	31.938	-8.669	0	0	0	-143.467	22.008	52.014	-109.309	21.486	166.285	-153.103	-90.828	59.819
630	6.3	-81.798	-10.131	162.112	-55.121	-245.707	231.223	-34.334	-232.977	252.325	-46.816	-153.158	-8.669	-46.816	31.938	-8.669	0	0	0	-143.322	21.987	52.109	-109.332	21.283	166.428	-153.1	-90.847	59.76
631	6.31	-81.557	-10.903	162.352	-57.624	-246.948	230.865	-36.717	-234.51	252.022	-46.816	-153.158	-8.669	-46.816	31.938	-8.669	0	0	0	-143.014	21.872	52.377	-109.224	20.956	166.755	-152.96	-90.96	59.847
632	6.32	-81.331	-11.975	162.696	-60.136	-248.49	230.488	-39.074	-236.362	251.671	-46.816	-153.158	-8.669	-46.816	31.938	-8.669	0	0	0	-142.787	21.798	52.525	-109.176	20.67	166.953	-152.884	-91.032	59.811
633	6.33	-81.297	-12.298	162.65	-62.522	-249.273	229.54	-41.297	-237.449	250.732	-46.816	-153.158	-8.669	-46.816	31.938	-8.669	0	0	0	-142.698	21.72	52.519	-109.249	20.397	166.993	-152.922	-91.109	59.633
634	6.34	-81.315	-11.637	162.244	-64.685	-249.063	228.099	-43.315	-237.53	249.306	-46.816	-153.158	-8.669	-46.816	31.938	-8.669	0	0	0	-142.517	21.643	52.561	-109.26	20.151	167.088	-152.844	-91.187	59.517
635	6.35	-81.29	-10.654	161.88	-66.817	-248.511	226.68	-45.34	-237.268	247.935	-46.816	-153.158	-8.669	-46.816	31.938	-8.669	0	0	0	-142.189	21.754	52.679	-109.163	20.123	167.271	-152.57	-91.08	59.489
636	6.36	-81.222	-10.24	161.799	-69.151	-248.492	225.634	-47.604	-237.544	246.971	-46.816	-153.158	-8.669	-46.816	31.938	-8.669	0	0	0	-141.898	22.097	52.727	-109.102	20.339	167.384	-152.286	-90.745	59.39
637	6.37	-81.036	-10.841	162.02	-71.68	-249.43	225.045	-50.08	-238.787	246.483	-46.816	-153.158	-8.669	-46.816	31.938	-8.669	0	0	0	-141.655	22.439	52.716	-109.069	20.531	167.43	-152.058	-90.411	59.212
638	6.38	-80.701	-12.196	162.484	-74.227	-251.059	224.831	-52.567	-240.724	246.359	-46.816	-153.158	-8.669	-46.816	31.938	-8.669	0	0	0	-141.388	22.615	52.74	-108.981	20.521	167.501	-151.845	-90.241	59.05
639	6.39	-80.373	-13.493	162.922	-76.581	-252.578	224.635	-54.839	-242.537	246.22	-46.816	-153.158	-8.669	-46.816	31.938	-8.669	0	0	0	-141.189	22.691	52.743	-108.903	20.39	167.535	-151.711	-90.17	58.856
640	6.4	-80.175	-14.049	163.048	-78.579	-253.32	224.131	-56.724	-243.542	245.721	-46.816	-153.158	-8.669	-46.816	31.938	-8.669	0	0	0	-141.157	22.802	52.651	-108.911	20.29	167.449	-151.72	-90.066	58.563
641	6.41	-80.016	-13.978	163.031	-80.221	-253.41	223.5	-58.211	-243.871	245.04	-46.816	-153.158	-8.669	-46.816	31.938	-8.669	0	0	0	-141.227	23.019	52.568	-108.975	20.303	167.36	-151.806	-89.858	58.285
642	6.42	-79.79	-13.739	163.198	-81.655	-253.321	223.044	-59.448	-244.021	244.487	-46.816	-153.158	-8.669	-46.816	31.938	-8.669	0	0	0	-141.195	23.284	52.616	-108.953	20.373	167.406	-151.778	-89.601	58.141
643	6.43	-79.585	-13.401	163.406	-83.045	-253.14	222.549	-60.611	-244.092	243.862	-46.816	-153.158	-8.669	-46.816	31.938	-8.669	0	0	0	-140.902	23.433	52.683	-108.721	20.332	167.485	-151.502	-89.46	58.019
644	6.44	-79.521	-12.853	163.276	-84.51	-252.772	221.574	-61.842	-243.987	242.749	-46.816	-153.158	-8.669	-46.816	31.938	-8.669	0	0	0	-140.444	23.417	52.61	-108.371	20.137	167.437	-151.084	-89.48	57.77
645	6.45	-79.526	-12.282	162.795	-86.083	-252.401	220.102	-63.199	-243.894	241.159	-46.816	-153.158	-8.669	-46.816	31.938	-8.669	0	0	0	-139.955	23.364	52.474	-108.027	19.926	167.337	-150.644	-89.536	57.478
646	6.46	-79.436	-11.995	162.192	-87.701	-252.325	218.383	-64.639	-244.111	239.361	-46.816	-153.158	-8.669	-46.816	31.938	-8.669	0	0	0	-139.428	23.381	52.433	-107.662	19.824	167.337	-150.143	-89.522	57.309
647	6.47	-79.268	-11.991	161.485	-89.358	-252.531	216.466	-66.16	-244.617	237.41	-46.816	-153.158	-8.669	-46.816	31.938	-8.669	0	0	0	-138.969	23.523	52.449	-107.355	19.896	167.394	-149.685	-89.383	57.242
648	6.48	-79.176	-12.102	160.737	-91.193	-252.835	214.475	-67.918	-245.219	235.445	-46.816	-153.158	-8.669	-46.816	31.938	-8.669	0	0	0	-138.749	23.847	52.39	-107.263	20.194	167.369	-149.463	-89.061	57.143
649	6.49	-79.167	-12.391	160.349	-93.304	-253.274	212.88	-70.026	-245.952	233.951	-46.816	-153.158	-8.669	-46.816	31.938	-8.669	0	0	0	-138.701	24.283	52.253	-107.328	20.624	167.262	-149.428	-88.625	56.993
650	6.5	-79.095	-12.811	160.567	-95.498	-253.798	211.956	-72.285	-246.757	233.193	-46.816	-153.158	-8.669	-46.816	31.938	-8.669	0	0	0	-138.634	24.604	52.143	-107.371	20.95	167.182	-149.398	-88.3	56.885
651	6.51	-78.93	-12.927	161.211	-97.5	-253.988	211.499	-74.392	-247.206	232.935	-46.816	-153.158	-8.669	-46.816	31.938	-8.669	0	0	0	-138.445	24.669	52.142	-107.302	21.033	167.214	-149.265	-88.228	56.905
652	6.52	-78.838	-12.588	162.003	-99.355	-253.713	211.219	-76.358	-247.166	232.846	-46.816	-153.158	-8.669	-46.816	31.938	-8.669	0	0	0	-138.159	24.581	52.253	-107.16	20.966	167.365	-149.052	-88.309	57.042
653	6.53	-78.924	-12.241	162.804	-101.301	-253.403	211.017	-78.388	-247.085	232.8	-46.816	-153.158	-8.669	-46.816	31.938	-8.669	0	0	0	-137.906	24.527	52.378	-107.063	20.921	167.532	-148.875	-88.355	57.179
654	6.54	-79.064	-12.243	163.517	-103.322	-253.395	210.863	-80.45	-247.309	232.754	-46.816	-153.158	-8.669	-46.816	31.938	-8.669	0	0	0	-137.744	24.571	52.383	-107.057	20.97	167.579	-148.782	-88.304	57.191
655	6.55	-79.003	-12.592	164.009	-105.154	-253.689	210.625	-82.266	-247.839	232.564	-46.816	-153.158	-8.669	-46.816	31.938	-8.669	0	0	0	-137.624	24.658	52.215	-107.097	21.076	167.454	-148.706	-88.212	57.037
656	6.56	-78.712	-13.104	164.287	-106.705	-254.133	210.176	-83.745	-248.533	232.105	-46.816	-153.158	-8.669	-46.816	31.938	-8.669	0	0	0	-137.545	24.721	51.929	-107.192	21.165	167.215	-148.648	-88.146	56.764
657	6.57	-78.526	-13.34	164.51	-108.2	-254.33	209.54	-85.127	-248.991	231.416	-46.816	-153.158	-8.669	-46.816	31.938	-8.669	0	0	0	-137.527	24.73	51.699	-107.37	21.187	167.036	-148.657	-88.135	56.531
658	6.58	-78.67	-12.947	164.699	-109.79	-253.933	208.759	-86.579	-248.855	230.55	-46.816	-153.158	-8.669	-46.816	31.938	-8.669	0	0	0	-137.492	24.71	51.7	-107.548	21.154	167.093	-148.67	-88.151	56.51
659	6.59	-78.919	-12.161	164.671	-111.35	-253.143	207.797	-87.986	-248.315	229.482	-46.816	-153.158	-8.669	-46.816	31.938	-8.669	0	0	0	-137.37	24.752	51.896	-107.636	21.166	167.342	-148.602	-88.105	56.668
660	6.6	-79.041	-11.493	164.394	-112.833	-252.438	206.681	-89.316	-247.857	228.254	-46.816	-153.158	-8.669	-46.816	31.938	-8.669	0	0	0	-137.199	24.88	52.086	-107.644	21.26	167.577	-148.473	-87.974	56.815
661	6.61	-79.121	-11.293	164.15	-114.447	-252.173	205.544	-90.803	-247.854	227.032	-46.816	-153.158	-8.669	-46.816	31.938	-8.669	0	0	0	-137.002	24.953	52.179	-107.588	21.293	167.705	-148.305	-87.901	56.863
662	6.62	-79.248	-11.631	164.112	-116.272	-252.443	204.401	-92.545	-248.407	225.853	-46.816	-153.158	-8.669	-46.816	31.938	-8.669	0	0	0	-136.726	24.846	52.24	-107.436	21.141	167.796	-148.061	-88.007	56.874
663	6.63	-79.304	-12.215	164.025	-118.033	-252.97	203.033	-94.265	-249.221	224.491	-46.816	-153.158	-8.669	-46.816	31.938	-8.669	0	0	0	-136.395	24.594	52.333	-107.23	20.838	167.919	-147.77	-88.257	56.914
664	6.64	-79.139	-12.663	163.597	-119.427	-253.367	201.318	-95.651	-249.881	222.812	-46.816	-153.158	-8.669	-46.816	31.938	-8.669	0	0	0	-136.141	24.318	52.427	-107.091	20.51	168.041	-147.553	-88.531	56.955
665	6.65	-78.801	-12.902	162.987	-120.523	-253.543	199.53	-96.785	-250.285	221.101	-46.816	-153.158	-8.669	-46.816	31.938	-8.669	0	0	0	-136.028	24.162	52.435	-107.071	20.312	168.07	-147.453	-88.687	56.914
666	6.66	-78.558	-13.135	162.648	-121.708	-253.689	198.091	-98.075	-250.629	219.806	-46.816	-153.158	-8.669	-46.816	31.938	-8.669	0	0	0	-135.975	24.188	52.351	-107.1	20.307	168.005	-147.396	-88.663	56.79
667	6.67	-78.615	-13.437	162.754	-123.2	-253.888	197.103	-99.745	-251.004	219.033	-46.816	-153.158	-8.669	-46.816	31.938	-8.669	0	0	0	-135.864	24.301	52.294	-107.101	20.392	167.975	-147.304	-88.55	56.698
668	6.68	-78.827	-13.599	162.972	-124.742	-253.951	196.246	-101.512	-251.215	218.433	-46.816	-153.158	-8.669	-46.816	31.938	-8.669	0	0	0	-135.675	24.411	52.318	-107.074	20.464	168.039	-147.178	-88.435	56.683
669	6.69	-78.892	-13.577	162.982	-125.988	-253.839	195.238	-103.002	-251.226	217.693	-46.816	-153.158	-8.669	-46.816	31.938	-8.669	0	0	0	-135.498	24.562	52.266	-107.112	20.577	168.038	-147.088	-88.277	56.593
